<svg id="Capa_1" data-name="Capa 1" xmlns="http://www.w3.org/2000/svg" viewBox="0 0 392.94 114.89"><path d="M119.66,56.83l4.37-.62h.85l4.06.62v1.69h-9.28Zm0-26h5.49v2.31h-.51l-5-.62Zm3.72,0h1.77l.37,12.45V58.52H123.4Zm0,0h3.88l10,24.57h-1.4l9.46-24.57h2.22L136.86,58.52h-2.1Zm18.8,26,5-.62h.89l5.41.62v1.69H142.25Zm3.57-11.1V30.81h3.95c-.13,4.18-.13,8.49-.13,12.83v2c0,4.27,0,8.58.13,12.84H145.7C145.82,54.33,145.82,50,145.82,45.73Zm1.88-14.92h5.84V32.5l-5.41.62h-.43Z" style="fill:#333"/><path d="M161.87,51.22c0,3.62,1.06,4.88,3.29,4.88S169.39,55,171.41,53h.91v2.14h-2.14l1.44-.65c-2.34,3.22-5.15,4.59-7.88,4.59-3.33,0-5.41-2-5.37-7.45l.13-10.94.89.81-3.84-.82V39.19l6.1-.58.43.42-.21,5.8Zm9.64,7.63L171,54l.12-13.34.9.81-3.84-.82V39.2l6-.59.42.42-.12,5.8V57.29l-1.09-1.09,3.91.84v1.48Z" style="fill:#333"/><path d="M180.77,57.47l-.15-4.55h2.26l1.1,4.92-2-.94V55.48A8,8,0,0,0,187,57.17c3.15,0,4.63-1.25,4.63-3.14s-1.22-2.66-3.83-3.61l-1.93-.7c-3-1.1-5-2.75-5-5.58,0-3,2.56-5.81,7.21-5.81A10.76,10.76,0,0,1,193.9,40l-.17,4.21h-2.14L190.74,40l1.54.68v1.1a6.79,6.79,0,0,0-4.23-1.56c-2.52,0-3.84,1.11-3.84,2.83s1,2.53,3.83,3.56l1.28.46c4.13,1.51,5.7,3.47,5.7,6.06,0,3.14-2.74,5.94-8.06,5.94A12.62,12.62,0,0,1,180.77,57.47Z" style="fill:#333"/><path d="M201.16,58.52c.08-1.87.13-6.13.13-8.7V47.88c0-2.28,0-3.56-.13-5.22l-3.35-.37V40.83l6.39-2.5.63.41-.12,5.62v5.46c0,2.57,0,6.83.12,8.7ZM207.68,57v1.48h-9.61V57l4.51-.83h1Zm-7.5-25.95a2.78,2.78,0,0,1,5.55,0,2.78,2.78,0,0,1-5.55,0Z" style="fill:#333"/><path d="M214.35,48.34c0,5.19,2.75,8,6.61,8a6.64,6.64,0,0,0,5.74-3.17l1,.54c-1.14,3.43-3.81,5.32-7.7,5.32-5.67,0-9.29-4-9.29-10.32,0-6.52,4.57-10.41,9.57-10.41,3.73,0,6.79,2.3,7.31,5.38a1.76,1.76,0,0,1-1.91,1.57,2.19,2.19,0,0,1-2.25-2l-1-3.6,2,1.54a8.66,8.66,0,0,0-4-1C216.92,40.21,214.35,43,214.35,48.34Z" style="fill:#333"/><path d="M263.83,56.7a18.86,18.86,0,0,1-9.12,2.45c-8.3,0-13.93-6.13-13.93-14.49s5.65-14.48,14.11-14.48a15.72,15.72,0,0,1,8.31,2l.16,6H260.8L259.74,32l2.58.81V35.2a10,10,0,0,0-7.07-2.93c-5.72,0-10,4.46-10,12.39S249.17,57,255.52,57a13.2,13.2,0,0,0,6.36-1.68l-1.94,2V54.88c0-3.16,0-6.38-.12-9.54H264c-.08,3.11-.12,6.31-.12,9.55ZM255.55,47V45.34h10.87V47l-4.57.42h-.94Z" style="fill:#333"/><path d="M271.86,49.82v-2c0-2.28,0-3.53-.12-5.19l-3.27-.37V40.83l5.77-2.5.63.41.49,5.17v5.91c0,2.57,0,6.83.13,8.7h-3.75C271.82,56.65,271.86,52.39,271.86,49.82ZM268.8,57l4.52-.83h1l4.52.83v1.48H268.8Zm4.82-12.8H276l-1,.34c1.29-3.92,3.84-6.25,6.28-6.25a3.47,3.47,0,0,1,3,1.5c0,2-.78,3-2.44,3a3.74,3.74,0,0,1-2.52-1l-1.12-1,2-.36c-2.5,1.31-4,3.39-4.92,6.54l-1.66,0Z" style="fill:#333"/><path d="M286,48.77c0-6.85,4.67-10.44,9.5-10.44s9.5,3.59,9.5,10.44-4.72,10.29-9.5,10.29S286,55.61,286,48.77Zm15.09,0c0-5.56-2.06-8.56-5.59-8.56s-5.59,3-5.59,8.56,2,8.41,5.59,8.41S301.11,54.34,301.11,48.77Z" style="fill:#333"/><path d="M313.82,51.22c0,3.62,1.06,4.88,3.29,4.88,2.08,0,4.23-1.07,6.25-3.12h.91v2.14h-2.15l1.45-.65c-2.34,3.22-5.15,4.59-7.88,4.59-3.33,0-5.42-2-5.37-7.45l.12-10.94.9.81-3.84-.82V39.19l6.1-.58L314,39l-.21,5.8Zm9.64,7.63L322.89,54,323,40.67l.89.81-3.83-.82V39.2l6-.59.43.42-.12,5.8V57.29l-1.1-1.09,3.91.84v1.48Z" style="fill:#333"/><path d="M342.29,66.94v1.48H331.63V66.94l4.64-.83h1Zm-7.24-19.09c0-2.28,0-3.53-.13-5.19l-3.26-.37V40.83l5.77-2.5.62.41.33,3.5.17.12V55.28l-.13.26v4.07c0,2.89,0,5.87.13,8.81h-3.63c.09-2.94.13-5.84.13-8.73Zm8.5-7.17c-1.57,0-3.63.83-6.56,3.68l-.37-.74c2.4-3.69,5.1-5.29,8-5.29,4.39,0,7.88,3.88,7.88,10.28S348.78,59.06,344,59.06c-2.59,0-5.14-1.21-7.31-5.52l.37-.67c2.13,2.71,4.07,3.84,6.1,3.84,3.11,0,5.63-2.43,5.63-7.74S346.58,40.68,343.55,40.68Z" style="fill:#333"/><path d="M196.84,84.46l2.35-.35h.46l2.56.35v1h-5.37Zm7-14.83h1.46l5.38,15.78h-2.28l-4.67-13.94.56-.06-4.76,14h-1.11Zm-2.73,9.6h6.32l.39,1.09H200.7Zm4.58,5.23,2.93-.35h.53l2.91.35v1h-6.37Z" style="fill:#4a5556"/><path d="M213.06,70.7v-1h3.31v1.3h-.24Zm3.31,13.41v1.3h-3.31v-1l3.07-.35ZM215.26,77c0-2.41,0-4.84-.07-7.25h2.35c-.07,2.36-.07,4.8-.07,7.25v.89c0,2.68,0,5.11.07,7.52h-2.35c.07-2.36.07-4.8.07-7.52Zm1.11,7.32h3c3.62,0,5.61-2.47,5.61-6.72,0-4.41-2-6.76-5.41-6.76h-3.2V69.75H220c4.48,0,7.56,2.77,7.56,7.85s-3.45,7.81-8,7.81h-3.14Z" style="fill:#4a5556"/><path d="M229.08,84.46l2.47-.35H232l2.3.35v1h-5.25Zm0-14.71h3.11v1.3h-.29l-2.82-.35Zm2.11,0h1l.21,7v8.62H231.2Zm0,0h2.19l5.65,13.89h-.8l5.35-13.89h1.26l-6.07,15.66h-1.19Zm10.63,14.71,2.82-.35h.5l3.06.35v1h-6.38Zm2-6.28V69.75h2.23C246,72.11,246,74.55,246,77v1.16c0,2.41,0,4.84.07,7.25h-2.3C243.88,83.05,243.88,80.61,243.88,78.18Zm1.06-8.43h3.3v1l-3.06.35h-.24Z" style="fill:#4a5556"/><path d="M250.32,70.7v-1h6.61v1l-3.07.35h-.48Zm3.54,13.41,3.07.35v1h-6.61v-1l3.06-.35ZM252.52,77c0-2.41,0-4.84-.07-7.25h2.35c-.07,2.36-.07,4.8-.07,7.25v1.15c0,2.42,0,4.85.07,7.26h-2.35c.07-2.36.07-4.8.07-7.25Z" style="fill:#4a5556"/><path d="M258.89,84.46l2.46-.35h.48l2.71.35v1h-5.65Zm1.46-14,1.44.57L259,70.7v-1h3.61L272.25,83v2.56h-.82Zm.53-.73,1.19,1V85.41h-1.19Zm7.71,0h5.65v1l-2.34.35h-.48l-2.83-.35Zm2.47,0h1.19V85.57l-1.19-1.19Z" style="fill:#4a5556"/><path d="M196.84,84.46l2.35-.35h.46l2.56.35v1h-5.37Zm7-14.83h1.46l5.38,15.78h-2.28l-4.67-13.94.56-.06-4.76,14h-1.11Zm-2.73,9.6h6.32l.39,1.09H200.7Zm4.58,5.23,2.93-.35h.53l2.91.35v1h-6.37Z" style="fill:#4a5556"/><path d="M213.06,70.7v-1h3.31v1.3h-.24Zm3.31,13.41v1.3h-3.31v-1l3.07-.35ZM215.26,77c0-2.41,0-4.84-.07-7.25h2.35c-.07,2.36-.07,4.8-.07,7.25v.89c0,2.68,0,5.11.07,7.52h-2.35c.07-2.36.07-4.8.07-7.52Zm1.11,7.32h3c3.62,0,5.61-2.47,5.61-6.72,0-4.41-2-6.76-5.41-6.76h-3.2V69.75H220c4.48,0,7.56,2.77,7.56,7.85s-3.45,7.81-8,7.81h-3.14Z" style="fill:#4a5556"/><path d="M229.08,84.46l2.47-.35H232l2.3.35v1h-5.25Zm0-14.71h3.11v1.3h-.29l-2.82-.35Zm2.11,0h1l.21,7v8.62H231.2Zm0,0h2.19l5.65,13.89h-.8l5.35-13.89h1.26l-6.07,15.66h-1.19Zm10.63,14.71,2.82-.35h.5l3.06.35v1h-6.38Zm2-6.28V69.75h2.23C246,72.11,246,74.55,246,77v1.16c0,2.41,0,4.84.07,7.25h-2.3C243.88,83.05,243.88,80.61,243.88,78.18Zm1.06-8.43h3.3v1l-3.06.35h-.24Z" style="fill:#4a5556"/><path d="M250.32,70.7v-1h6.61v1l-3.07.35h-.48Zm3.54,13.41,3.07.35v1h-6.61v-1l3.06-.35ZM252.52,77c0-2.41,0-4.84-.07-7.25h2.35c-.07,2.36-.07,4.8-.07,7.25v1.15c0,2.42,0,4.85.07,7.26h-2.35c.07-2.36.07-4.8.07-7.25Z" style="fill:#4a5556"/><path d="M258.89,84.46l2.46-.35h.48l2.71.35v1h-5.65Zm1.46-14,1.44.57L259,70.7v-1h3.61L272.25,83v2.56h-.82Zm.53-.73,1.19,1V85.41h-1.19Zm7.71,0h5.65v1l-2.34.35h-.48l-2.83-.35Zm2.47,0h1.19V85.57l-1.19-1.19Z" style="fill:#4a5556"/><path d="M130.45,78.62c18.54.07,36.54.07,55.25-.24" style="fill:none;stroke:#4a5556;stroke-miterlimit:10"/><path d="M286.42,78.49c18.54.06,36.54.06,55.25-.24" style="fill:none;stroke:#4a5556;stroke-miterlimit:10"/><path d="M57.65,78.38V38a26.3,26.3,0,0,1-4.24.74q-2.65.3-5.66.49t-6,.27c-2,.05-3.72.07-5.11.07v.84h6v38h15ZM107,75.45a49.89,49.89,0,0,1-1.38-7V46.11a5.52,5.52,0,0,0-.26-1.76,12.21,12.21,0,0,0-.63-1.69,8.32,8.32,0,0,0-3-3.53,11,11,0,0,0-4.33-1.66,30.3,30.3,0,0,0-4.66-.38,13.08,13.08,0,0,0-4.25.68A12,12,0,0,0,84.72,40a7,7,0,0,0-1.13,1c-.22.25-.41.49-.6.74.14.26.91-.22,1.2-.51A6.08,6.08,0,0,1,85.62,40a1.52,1.52,0,0,1,.8-.23A5.69,5.69,0,0,1,88,40a2.26,2.26,0,0,1,1.17.71,7.1,7.1,0,0,1,1.19,2.66,13.88,13.88,0,0,1,.33,3V67.24a14.54,14.54,0,0,0,.64,4.3,8.83,8.83,0,0,0,2.14,3.57,10.07,10.07,0,0,0,4,2.4,18.9,18.9,0,0,0,6.16.87h7.07V78A3.62,3.62,0,0,1,107,75.45Zm-24.12,0a44.25,44.25,0,0,1-1.26-7V53.18c0-.31.1-4.47-.08-7.22a7.45,7.45,0,0,0-.52-2.51c-.11-.27-.2-.54-.3-.79a8.32,8.32,0,0,0-3-3.53,10.92,10.92,0,0,0-4.32-1.66,30.3,30.3,0,0,0-4.66-.38,13.08,13.08,0,0,0-4.25.68A12,12,0,0,0,60.72,40a9.88,9.88,0,0,0-1.66,1.5c.16.23.87,0,1.13-.22a6.17,6.17,0,0,1,1.32-1.18,1.62,1.62,0,0,1,.9-.28A5.19,5.19,0,0,1,64,40a2.22,2.22,0,0,1,1.17.71,6.88,6.88,0,0,1,1.17,2.69,13.88,13.88,0,0,1,.33,3V67.24a14.54,14.54,0,0,0,.64,4.3,8.83,8.83,0,0,0,2.14,3.57,10.07,10.07,0,0,0,4,2.4,18.9,18.9,0,0,0,6.16.87h7.07V78A3.66,3.66,0,0,1,82.91,75.45Z" style="fill:#884713"/></svg>