<svg id="Capa_1" data-name="Capa 1" xmlns="http://www.w3.org/2000/svg" viewBox="0 0 392.94 107.23"><path d="M119.51,55.42l4.38-.62h.85l4,.62v1.69h-9.28Zm0-26H125v2.31h-.51l-5-.62Zm3.72,0H125l.37,12.45V57.11h-2.15Zm.06,0h3.87l10,24.58h-1.4l9.45-24.58h2.23L136.71,57.11h-2.09Zm18.8,26,5-.62H148l5.42.62v1.69H142.11Zm3.57-11.09V29.4h3.94c-.12,4.19-.12,8.49-.12,12.84v2c0,4.26,0,8.57.12,12.83h-4.07C145.68,52.92,145.68,48.62,145.68,44.33Zm1.88-14.93h5.83v1.69l-5.41.62h-.42Z" style="fill:#ddd"/><path d="M161.73,49.81c0,3.62,1.06,4.88,3.29,4.88,2.08,0,4.23-1.07,6.25-3.12h.91v2.15H170l1.45-.66c-2.34,3.22-5.15,4.59-7.88,4.59-3.33,0-5.42-2-5.37-7.45l.12-10.94.9.82-3.84-.83V37.78l6.1-.57.43.41-.21,5.8Zm9.64,7.64-.57-4.85.13-13.34.9.82L168,39.25V37.79l6-.58.43.41-.12,5.8V55.88l-1.1-1.09,3.91.84v1.48Z" style="fill:#ddd"/><path d="M180.62,56.06l-.15-4.54h2.26l1.11,4.92-2.05-.95V54.07a7.94,7.94,0,0,0,5.1,1.7c3.14,0,4.62-1.26,4.62-3.15S190.3,50,187.68,49l-1.92-.7c-3-1.11-5-2.75-5-5.59,0-3,2.56-5.81,7.21-5.81a10.69,10.69,0,0,1,5.8,1.7l-.17,4.2h-2.14l-.85-4.24,1.53.69v1.1a6.75,6.75,0,0,0-4.22-1.56c-2.53,0-3.84,1.1-3.84,2.82s1,2.53,3.82,3.56l1.29.46c4.13,1.51,5.7,3.47,5.7,6.07,0,3.13-2.74,5.93-8.07,5.93A12.68,12.68,0,0,1,180.62,56.06Z" style="fill:#ddd"/><path d="M201,57.11c.08-1.86.12-6.13.12-8.69v-2c0-2.28,0-3.56-.12-5.22l-3.35-.37V39.42l6.39-2.5.63.42L204.56,43v5.47c0,2.56,0,6.83.13,8.69Zm6.51-1.48v1.48h-9.6V55.63l4.51-.82h1ZM200,29.69a2.78,2.78,0,0,1,5.56,0,2.78,2.78,0,0,1-5.56,0Z" style="fill:#ddd"/><path d="M214.21,46.93c0,5.19,2.74,8,6.61,8a6.63,6.63,0,0,0,5.73-3.18l1,.54c-1.14,3.44-3.81,5.32-7.7,5.32-5.67,0-9.3-3.95-9.3-10.32s4.58-10.41,9.58-10.41c3.72,0,6.79,2.3,7.31,5.38a1.76,1.76,0,0,1-1.92,1.57,2.2,2.2,0,0,1-2.25-2l-1-3.61,2,1.55a8.52,8.52,0,0,0-3.95-1C216.78,38.8,214.21,41.62,214.21,46.93Z" style="fill:#ddd"/><path d="M263.69,55.3a18.85,18.85,0,0,1-9.12,2.44c-8.3,0-13.94-6.13-13.94-14.49s5.66-14.48,14.12-14.48a15.57,15.57,0,0,1,8.3,2l.17,6h-2.56l-1.06-6.15,2.58.82V33.8a10,10,0,0,0-7.07-2.94c-5.72,0-10,4.47-10,12.39S249,55.61,255.38,55.61a13.2,13.2,0,0,0,6.36-1.68l-1.94,2V53.47c0-3.16,0-6.38-.13-9.54h4.14c-.08,3.12-.12,6.31-.12,9.55Zm-8.28-9.68V43.93h10.86v1.69l-4.57.43h-.93Z" style="fill:#ddd"/><path d="M271.72,48.42v-2c0-2.27,0-3.53-.13-5.19l-3.26-.37V39.42l5.77-2.5.63.42.49,5.17v5.91c0,2.56,0,6.83.12,8.69h-3.75C271.68,55.25,271.72,51,271.72,48.42Zm-3.06,7.21,4.52-.82h1l4.52.82v1.48H268.66Zm4.82-12.8h2.4l-1,.34c1.29-3.92,3.83-6.25,6.28-6.25a3.44,3.44,0,0,1,3,1.5c0,2-.77,3-2.43,3a3.73,3.73,0,0,1-2.52-1l-1.13-1,2-.36c-2.5,1.32-4,3.39-4.92,6.54l-1.66,0Z" style="fill:#ddd"/><path d="M285.88,47.36c0-6.84,4.67-10.44,9.5-10.44s9.5,3.59,9.5,10.44-4.72,10.29-9.5,10.29S285.88,54.2,285.88,47.36Zm15.09,0c0-5.57-2.06-8.57-5.59-8.57s-5.59,3-5.59,8.57,2,8.4,5.59,8.4S301,52.93,301,47.37Z" style="fill:#ddd"/><path d="M313.68,49.81c0,3.62,1.06,4.88,3.29,4.88,2.08,0,4.22-1.07,6.25-3.12h.91v2.15H322l1.44-.66c-2.33,3.22-5.15,4.59-7.88,4.59-3.32,0-5.41-2-5.37-7.45l.13-10.94.89.82-3.84-.83V37.78l6.11-.57.42.41-.2,5.8Zm9.64,7.64-.57-4.85.13-13.34.89.82-3.83-.83V37.79l6-.58.43.41-.13,5.8V55.88l-1.09-1.09,3.91.84v1.48Z" style="fill:#ddd"/><path d="M342.14,65.54V67H331.49V65.54l4.64-.83h1Zm-7.23-19.1c0-2.27-.05-3.53-.13-5.19l-3.27-.37V39.42l5.78-2.5.62.41.33,3.51.16.11V53.87l-.12.26v4.08c0,2.88,0,5.86.12,8.8h-3.62c.08-2.94.13-5.84.13-8.72Zm8.5-7.17c-1.57,0-3.63.84-6.56,3.69l-.37-.74c2.4-3.69,5.09-5.3,8-5.3,4.39,0,7.88,3.88,7.88,10.28s-3.68,10.45-8.51,10.45c-2.6,0-5.14-1.21-7.31-5.51l.37-.67c2.13,2.7,4.07,3.84,6.1,3.84,3.11,0,5.63-2.43,5.63-7.75S346.43,39.27,343.41,39.27Z" style="fill:#ddd"/><path d="M196.7,83.05,199,82.7h.47l2.55.35v1H196.7Zm7-14.82h1.46L210.49,84h-2.28l-4.66-13.94.56-.07-4.76,14h-1.12Zm-2.73,9.59h6.32l.38,1.1h-7.08Zm4.57,5.23,2.93-.35H209l2.9.35v1H205.5Z" style="fill:#ddd"/><path d="M212.92,69.29v-1h3.3v1.3H216Zm3.3,13.41V84h-3.3v-1L216,82.7Zm-1.1-7.1c0-2.42,0-4.85-.07-7.26h2.35c-.07,2.36-.07,4.8-.07,7.26v.88c0,2.68,0,5.11.07,7.53h-2.35c.07-2.37.07-4.8.07-7.53Zm1.1,7.31h3c3.62,0,5.61-2.47,5.61-6.72s-2-6.76-5.41-6.76h-3.21V68.34h3.61c4.48,0,7.56,2.77,7.56,7.85s-3.45,7.82-8,7.82h-3.14Z" style="fill:#ddd"/><path d="M228.94,83.05l2.47-.35h.48l2.3.35v1h-5.25Zm0-14.71h3.1v1.3h-.29L229,69.29Zm2.1,0h1l.21,7V84h-1.22Zm0,0h2.2l5.64,13.89h-.79l5.35-13.89h1.25L238.66,84h-1.18Zm10.63,14.71,2.82-.35H245l3.06.35v1h-6.39Zm2-6.27V68.34H246c-.07,2.37-.07,4.8-.07,7.26v1.15c0,2.41,0,4.85.07,7.26h-2.31C243.73,81.64,243.73,79.2,243.73,76.78Zm1.06-8.44h3.3v1l-3.05.35h-.25Z" style="fill:#ddd"/><path d="M250.18,69.29v-1h6.61v1l-3.07.35h-.48Zm3.54,13.41,3.07.35v1h-6.61v-1l3.06-.35Zm-1.34-7.1c0-2.42,0-4.85-.07-7.26h2.35c-.07,2.36-.07,4.8-.07,7.26v1.15c0,2.41,0,4.84.07,7.26h-2.35c.07-2.37.07-4.8.07-7.26Z" style="fill:#ddd"/><path d="M258.74,83.05l2.46-.35h.48l2.71.35v1h-5.65Zm1.46-14,1.45.57-2.79-.34v-1h3.61l9.64,13.26v2.56h-.82Zm.53-.73,1.19,1V84h-1.19Zm7.72,0h5.65v1l-2.35.35h-.47l-2.83-.35Zm2.47,0h1.19V84.16L270.92,83Z" style="fill:#ddd"/><path d="M196.7,83.05,199,82.7h.47l2.55.35v1H196.7Zm7-14.82h1.46L210.49,84h-2.28l-4.66-13.94.56-.07-4.76,14h-1.12Zm-2.73,9.59h6.32l.38,1.1h-7.08Zm4.57,5.23,2.93-.35H209l2.9.35v1H205.5Z" style="fill:#ddd"/><path d="M212.92,69.29v-1h3.3v1.3H216Zm3.3,13.41V84h-3.3v-1L216,82.7Zm-1.1-7.1c0-2.42,0-4.85-.07-7.26h2.35c-.07,2.36-.07,4.8-.07,7.26v.88c0,2.68,0,5.11.07,7.53h-2.35c.07-2.37.07-4.8.07-7.53Zm1.1,7.31h3c3.62,0,5.61-2.47,5.61-6.72s-2-6.76-5.41-6.76h-3.21V68.34h3.61c4.48,0,7.56,2.77,7.56,7.85s-3.45,7.82-8,7.82h-3.14Z" style="fill:#ddd"/><path d="M228.94,83.05l2.47-.35h.48l2.3.35v1h-5.25Zm0-14.71h3.1v1.3h-.29L229,69.29Zm2.1,0h1l.21,7V84h-1.22Zm0,0h2.2l5.64,13.89h-.79l5.35-13.89h1.25L238.66,84h-1.18Zm10.63,14.71,2.82-.35H245l3.06.35v1h-6.39Zm2-6.27V68.34H246c-.07,2.37-.07,4.8-.07,7.26v1.15c0,2.41,0,4.85.07,7.26h-2.31C243.73,81.64,243.73,79.2,243.73,76.78Zm1.06-8.44h3.3v1l-3.05.35h-.25Z" style="fill:#ddd"/><path d="M250.18,69.29v-1h6.61v1l-3.07.35h-.48Zm3.54,13.41,3.07.35v1h-6.61v-1l3.06-.35Zm-1.34-7.1c0-2.42,0-4.85-.07-7.26h2.35c-.07,2.36-.07,4.8-.07,7.26v1.15c0,2.41,0,4.84.07,7.26h-2.35c.07-2.37.07-4.8.07-7.26Z" style="fill:#ddd"/><path d="M258.74,83.05l2.46-.35h.48l2.71.35v1h-5.65Zm1.46-14,1.45.57-2.79-.34v-1h3.61l9.64,13.26v2.56h-.82Zm.53-.73,1.19,1V84h-1.19Zm7.72,0h5.65v1l-2.35.35h-.47l-2.83-.35Zm2.47,0h1.19V84.16L270.92,83Z" style="fill:#ddd"/><path d="M130.31,77.21c18.54.07,36.54.07,55.25-.23" style="fill:none;stroke:#ddd;stroke-miterlimit:10"/><path d="M286.27,77.08c18.55.06,36.55.06,55.26-.24" style="fill:none;stroke:#ddd;stroke-miterlimit:10"/><path d="M57.91,77V36.55a26.37,26.37,0,0,1-4.23.74c-1.78.2-3.67.37-5.67.49s-4,.22-6,.27-3.72.07-5.11.07V39h6V77h15Zm49-2.91a35.08,35.08,0,0,1-1-7V44.69a5.52,5.52,0,0,0-.26-1.76,12.71,12.71,0,0,0-.63-1.69,8.32,8.32,0,0,0-3-3.53,11,11,0,0,0-4.33-1.66A30.3,30.3,0,0,0,93,35.67a13,13,0,0,0-4.24.68A12,12,0,0,0,85,38.53a7,7,0,0,0-1.13,1c-.22.25-.41.49-.6.74.14.26.91-.22,1.2-.51a6.08,6.08,0,0,1,1.43-1.2,1.52,1.52,0,0,1,.8-.23,5.69,5.69,0,0,1,1.54.18,2.26,2.26,0,0,1,1.17.71,6.92,6.92,0,0,1,1.19,2.67,13.14,13.14,0,0,1,.33,3V65.82a14.54,14.54,0,0,0,.64,4.3,8.83,8.83,0,0,0,2.14,3.57,10.14,10.14,0,0,0,4,2.4,18.9,18.9,0,0,0,6.16.87h7.07v-.34C108.77,76.65,107.34,75.6,106.89,74.05Zm-24.13,0a31.92,31.92,0,0,1-.85-7V51.76c0-.3.1-4.47-.08-7.22A7.45,7.45,0,0,0,81.31,42c-.1-.27-.2-.54-.3-.79a8.32,8.32,0,0,0-3-3.53,10.92,10.92,0,0,0-4.32-1.66A30.3,30.3,0,0,0,69,35.67a13,13,0,0,0-4.24.68A12,12,0,0,0,61,38.53,9.52,9.52,0,0,0,59.32,40c.16.22.87,0,1.13-.23a6.17,6.17,0,0,1,1.32-1.18,1.7,1.7,0,0,1,.9-.28,5.19,5.19,0,0,1,1.57.18,2.22,2.22,0,0,1,1.17.71,6.86,6.86,0,0,1,1.17,2.7,13.14,13.14,0,0,1,.33,3V65.82a14.54,14.54,0,0,0,.64,4.3,8.83,8.83,0,0,0,2.14,3.57,10.07,10.07,0,0,0,4,2.4,18.9,18.9,0,0,0,6.16.87h7.07v-.34C84.65,76.65,83.22,75.6,82.76,74.05Z" style="fill:#ddd"/></svg>