<svg id="Capa_1" data-name="Capa 1" xmlns="http://www.w3.org/2000/svg" viewBox="0 0 392.94 98.55"><path d="M119.51,50.83l4.38-.63h.85l4,.63v1.68h-9.28Zm0-26H125v2.31h-.51l-5-.62Zm3.72,0H125l.37,12.45V52.51h-2.15Zm.06,0h3.87l10,24.57h-1.4l9.45-24.57h2.23l-10.74,27.7h-2.09Zm18.8,26,5-.63H148l5.42.63v1.68H142.11Zm3.57-11.1V24.81h3.94c-.12,4.18-.12,8.49-.12,12.83v2c0,4.27,0,8.57.12,12.83h-4.07C145.68,48.33,145.68,44,145.68,39.73Zm1.88-14.92h5.83V26.5l-5.41.62h-.42Z" style="fill:#ddd"/><path d="M161.73,45.22c0,3.62,1.06,4.88,3.29,4.88,2.08,0,4.23-1.07,6.25-3.13h.91v2.15H170l1.45-.65c-2.34,3.21-5.15,4.59-7.88,4.59-3.33,0-5.42-2-5.37-7.45l.12-11,.9.82-3.84-.83V33.19l6.1-.58.43.42-.21,5.8Zm9.64,7.63L170.8,48l.13-13.35.9.82L168,34.65V33.2l6-.59.43.42-.12,5.8V51.28l-1.1-1.08,3.91.84v1.48Z" style="fill:#ddd"/><path d="M180.62,51.47l-.15-4.55h2.26l1.11,4.92-2.05-.94V49.47a7.94,7.94,0,0,0,5.1,1.7c3.14,0,4.62-1.25,4.62-3.14s-1.21-2.66-3.83-3.61l-1.92-.7c-3-1.11-5-2.75-5-5.58,0-3,2.56-5.81,7.21-5.81a10.76,10.76,0,0,1,5.8,1.69l-.17,4.2h-2.14L190.6,34l1.53.68v1.1a6.75,6.75,0,0,0-4.22-1.56c-2.53,0-3.84,1.1-3.84,2.83s1,2.53,3.82,3.55l1.29.47c4.13,1.51,5.7,3.46,5.7,6.06,0,3.14-2.74,5.94-8.07,5.94A12.79,12.79,0,0,1,180.62,51.47Z" style="fill:#ddd"/><path d="M201,52.51c.08-1.86.12-6.12.12-8.69v-2c0-2.27,0-3.56-.12-5.21l-3.35-.38V34.83l6.39-2.5.63.41-.13,5.61v5.47c0,2.57,0,6.83.13,8.69ZM207.53,51v1.47h-9.6V51l4.51-.83h1ZM200,25.09a2.78,2.78,0,0,1,5.56,0,2.78,2.78,0,0,1-5.56,0Z" style="fill:#ddd"/><path d="M214.21,42.34c0,5.19,2.74,8,6.61,8a6.62,6.62,0,0,0,5.73-3.17l1,.54c-1.14,3.43-3.81,5.32-7.7,5.32-5.67,0-9.3-4-9.3-10.33s4.58-10.4,9.58-10.4c3.72,0,6.79,2.3,7.31,5.38a1.76,1.76,0,0,1-1.92,1.56,2.2,2.2,0,0,1-2.25-2l-1-3.6,2,1.54a8.52,8.52,0,0,0-3.95-1C216.78,34.2,214.21,37,214.21,42.34Z" style="fill:#ddd"/><path d="M263.69,50.7a18.85,18.85,0,0,1-9.12,2.44c-8.3,0-13.94-6.12-13.94-14.48s5.66-14.48,14.12-14.48a15.66,15.66,0,0,1,8.3,2l.17,6h-2.56L259.6,26l2.58.81V29.2a10,10,0,0,0-7.07-2.94c-5.72,0-10,4.47-10,12.4S249,51,255.38,51a13.21,13.21,0,0,0,6.36-1.69l-1.94,2V48.88c0-3.16,0-6.38-.13-9.54h4.14c-.08,3.11-.12,6.3-.12,9.55ZM255.41,41V39.34h10.86V41l-4.57.43h-.93Z" style="fill:#ddd"/><path d="M271.72,43.82v-2c0-2.28,0-3.54-.13-5.19l-3.26-.38V34.83l5.77-2.5.63.41.49,5.17v5.91c0,2.57,0,6.83.12,8.69h-3.75C271.68,50.65,271.72,46.39,271.72,43.82ZM268.66,51l4.52-.83h1l4.52.83v1.47H268.66Zm4.82-12.8h2.4l-1,.34c1.29-3.92,3.83-6.25,6.28-6.25a3.44,3.44,0,0,1,3,1.5c0,2-.77,3-2.43,3a3.73,3.73,0,0,1-2.52-1l-1.13-1,2-.36c-2.5,1.31-4,3.39-4.92,6.53h-1.66Z" style="fill:#ddd"/><path d="M285.88,42.76c0-6.84,4.67-10.43,9.5-10.43s9.5,3.59,9.5,10.43-4.72,10.3-9.5,10.3S285.88,49.61,285.88,42.76Zm15.09,0c0-5.57-2.06-8.56-5.59-8.56s-5.59,3-5.59,8.56,2,8.41,5.59,8.41S301,48.34,301,42.77Z" style="fill:#ddd"/><path d="M313.68,45.22c0,3.62,1.06,4.88,3.29,4.88,2.08,0,4.22-1.07,6.25-3.13h.91v2.15H322l1.44-.65c-2.33,3.21-5.15,4.59-7.88,4.59-3.32,0-5.41-2-5.37-7.45l.13-11,.89.82-3.84-.83V33.19l6.11-.58.42.42-.2,5.8Zm9.64,7.63L322.75,48l.13-13.35.89.82-3.83-.83V33.2l6-.59.43.42-.13,5.8V51.28l-1.09-1.08,3.91.84v1.48Z" style="fill:#ddd"/><path d="M342.14,60.94v1.48H331.49V60.94l4.64-.83h1Zm-7.23-19.09c0-2.28-.05-3.54-.13-5.19l-3.27-.38V34.83l5.78-2.5.62.41.33,3.5.16.11V49.27l-.12.27v4.07c0,2.88,0,5.87.12,8.81h-3.62c.08-2.94.13-5.85.13-8.73Zm8.5-7.17c-1.57,0-3.63.83-6.56,3.68l-.37-.74c2.4-3.69,5.09-5.29,8-5.29,4.39,0,7.88,3.87,7.88,10.28s-3.68,10.45-8.51,10.45c-2.6,0-5.14-1.22-7.31-5.52l.37-.67c2.13,2.71,4.07,3.84,6.1,3.84,3.11,0,5.63-2.43,5.63-7.75S346.43,34.68,343.41,34.68Z" style="fill:#ddd"/><path d="M196.7,78.45,199,78.1h.47l2.55.35v1H196.7Zm7-14.82h1.46l5.37,15.78h-2.28l-4.66-13.94.56-.07-4.76,14h-1.12Zm-2.73,9.6h6.32l.38,1.09h-7.08Zm4.57,5.23,2.93-.35H209l2.9.35v1H205.5Z" style="fill:#878888"/><path d="M212.92,64.7v-1h3.3v1.31H216Zm3.3,13.4v1.31h-3.3v-1L216,78.1Zm-1.1-7.1c0-2.41,0-4.84-.07-7.26h2.35c-.07,2.37-.07,4.8-.07,7.26v.88c0,2.68,0,5.12.07,7.53h-2.35c.07-2.36.07-4.8.07-7.53Zm1.1,7.32h3c3.62,0,5.61-2.47,5.61-6.72,0-4.41-2-6.76-5.41-6.76h-3.21v-1.1h3.61c4.48,0,7.56,2.77,7.56,7.86s-3.45,7.81-8,7.81h-3.14Z" style="fill:#878888"/><path d="M228.94,78.45l2.47-.35h.48l2.3.35v1h-5.25Zm0-14.71h3.1v1.31h-.29L229,64.7Zm2.1,0h1l.21,7v8.63h-1.22Zm0,0h2.2l5.64,13.9h-.79l5.35-13.9h1.25l-6.07,15.67h-1.18Zm10.63,14.71,2.82-.35H245l3.06.35v1h-6.39Zm2-6.27V63.74H246c-.07,2.37-.07,4.8-.07,7.26v1.15c0,2.42,0,4.85.07,7.26h-2.31C243.73,77,243.73,74.61,243.73,72.18Zm1.06-8.44h3.3v1l-3.05.35h-.25Z" style="fill:#878888"/><path d="M250.18,64.7v-1h6.61v1l-3.07.35h-.48Zm3.54,13.4,3.07.35v1h-6.61v-1l3.06-.35ZM252.38,71c0-2.41,0-4.84-.07-7.26h2.35c-.07,2.37-.07,4.8-.07,7.26v1.15c0,2.41,0,4.85.07,7.26h-2.35c.07-2.36.07-4.8.07-7.26Z" style="fill:#878888"/><path d="M258.74,78.45l2.46-.35h.48l2.71.35v1h-5.65Zm1.46-14,1.45.56-2.79-.34v-1h3.61L272.11,77v2.57h-.82Zm.53-.74,1.19,1V79.41h-1.19Zm7.72,0h5.65v1l-2.35.35h-.47l-2.83-.35Zm2.47,0h1.19V79.57l-1.19-1.19Z" style="fill:#878888"/><path d="M196.7,78.45,199,78.1h.47l2.55.35v1H196.7Zm7-14.82h1.46l5.37,15.78h-2.28l-4.66-13.94.56-.07-4.76,14h-1.12Zm-2.73,9.6h6.32l.38,1.09h-7.08Zm4.57,5.23,2.93-.35H209l2.9.35v1H205.5Z" style="fill:#878888"/><path d="M212.92,64.7v-1h3.3v1.31H216Zm3.3,13.4v1.31h-3.3v-1L216,78.1Zm-1.1-7.1c0-2.41,0-4.84-.07-7.26h2.35c-.07,2.37-.07,4.8-.07,7.26v.88c0,2.68,0,5.12.07,7.53h-2.35c.07-2.36.07-4.8.07-7.53Zm1.1,7.32h3c3.62,0,5.61-2.47,5.61-6.72,0-4.41-2-6.76-5.41-6.76h-3.21v-1.1h3.61c4.48,0,7.56,2.77,7.56,7.86s-3.45,7.81-8,7.81h-3.14Z" style="fill:#878888"/><path d="M228.94,78.45l2.47-.35h.48l2.3.35v1h-5.25Zm0-14.71h3.1v1.31h-.29L229,64.7Zm2.1,0h1l.21,7v8.63h-1.22Zm0,0h2.2l5.64,13.9h-.79l5.35-13.9h1.25l-6.07,15.67h-1.18Zm10.63,14.71,2.82-.35H245l3.06.35v1h-6.39Zm2-6.27V63.74H246c-.07,2.37-.07,4.8-.07,7.26v1.15c0,2.42,0,4.85.07,7.26h-2.31C243.73,77,243.73,74.61,243.73,72.18Zm1.06-8.44h3.3v1l-3.05.35h-.25Z" style="fill:#878888"/><path d="M250.18,64.7v-1h6.61v1l-3.07.35h-.48Zm3.54,13.4,3.07.35v1h-6.61v-1l3.06-.35ZM252.38,71c0-2.41,0-4.84-.07-7.26h2.35c-.07,2.37-.07,4.8-.07,7.26v1.15c0,2.41,0,4.85.07,7.26h-2.35c.07-2.36.07-4.8.07-7.26Z" style="fill:#878888"/><path d="M258.74,78.45l2.46-.35h.48l2.71.35v1h-5.65Zm1.46-14,1.45.56-2.79-.34v-1h3.61L272.11,77v2.57h-.82Zm.53-.74,1.19,1V79.41h-1.19Zm7.72,0h5.65v1l-2.35.35h-.47l-2.83-.35Zm2.47,0h1.19V79.57l-1.19-1.19Z" style="fill:#878888"/><path d="M130.31,72.62c18.54.06,36.54.06,55.25-.24" style="fill:none;stroke:#878888;stroke-miterlimit:10"/><path d="M286.27,72.48c18.55.07,36.55.07,55.26-.23" style="fill:none;stroke:#878888;stroke-miterlimit:10"/><path d="M57.91,72.32V31.91a26.37,26.37,0,0,1-4.23.74c-1.78.2-3.67.37-5.67.49s-4,.22-6,.27-3.72.08-5.11.08v.83h6v38h-6v1h27v-1Zm49-2.87a35,35,0,0,1-1-7V40.05a5.52,5.52,0,0,0-.26-1.76A12.71,12.71,0,0,0,105,36.6a8.32,8.32,0,0,0-3-3.53,11,11,0,0,0-4.33-1.66A30.3,30.3,0,0,0,93,31a13,13,0,0,0-4.24.68A12,12,0,0,0,85,33.89a7,7,0,0,0-1.13,1c-.22.25-.41.49-.6.74.14.26.91-.22,1.2-.51A6.08,6.08,0,0,1,85.88,34a1.61,1.61,0,0,1,.8-.23,5.33,5.33,0,0,1,1.54.19,2.18,2.18,0,0,1,1.17.7,7,7,0,0,1,1.19,2.67,13.14,13.14,0,0,1,.33,3V61.18a14.54,14.54,0,0,0,.64,4.3,8.76,8.76,0,0,0,2.14,3.57,10.14,10.14,0,0,0,4,2.4,18.9,18.9,0,0,0,6.16.87h7.07V72C108.77,72.05,107.34,71,106.89,69.45Zm-24.13,0a31.85,31.85,0,0,1-.85-7V47.12c0-.3.1-4.47-.08-7.21a7.46,7.46,0,0,0-.52-2.52c-.1-.27-.2-.54-.3-.79a8.32,8.32,0,0,0-3-3.53,11.07,11.07,0,0,0-4.32-1.66A30.3,30.3,0,0,0,69,31a13,13,0,0,0-4.24.68A12,12,0,0,0,61,33.89a9.93,9.93,0,0,0-1.66,1.51c.16.23.87,0,1.13-.23A6.17,6.17,0,0,1,61.77,34a1.8,1.8,0,0,1,.9-.28,5.53,5.53,0,0,1,1.57.18,2.22,2.22,0,0,1,1.17.71,6.93,6.93,0,0,1,1.17,2.7,13.14,13.14,0,0,1,.33,3V61.18a14.54,14.54,0,0,0,.64,4.3,8.76,8.76,0,0,0,2.14,3.57,10,10,0,0,0,4,2.4,18.9,18.9,0,0,0,6.16.87h7.07V72C84.65,72.05,83.22,71,82.76,69.45Z" style="fill:#884713"/></svg>